<svg height="420px" viewBox="0 0 600 550" fill="none"
	xmlns="http://www.w3.org/2000/svg"> xmlns="http://www.w3.org/2000/svg">
	<mask id="mask2" mask-type="alpha" maskUnits="userSpaceOnUse" x="253" y="77" width="95" height="88">
		<path fill-rule="evenodd" clip-rule="evenodd" d="M273.282 88.4443C297.425 72.6453 308.947 73.7349 326.506 88.4443C344.064 103.154 361.074 126.58 332.542 148.372C304.009 170.163 290.84 168.529 268.343 148.372C245.847 128.214 249.139 104.243 273.282 88.4443Z" fill="white" />
	</mask>
	<g ref="head" mask="url(#mask2)">
		<path fill-rule="evenodd" clip-rule="evenodd" d="M273.282 88.4443C297.425 72.6453 308.947 73.7349 326.506 88.4443C344.064 103.154 361.074 126.58 332.542 148.372C304.009 170.163 290.84 168.529 268.343 148.372C245.847 128.214 249.139 104.243 273.282 88.4443Z" fill="#7AD8DF" />
		<path d="M336.673 153.807L336.173 153.957C332.223 155.166 329.349 156.645 319.319 162.238C311.248 166.739 306.338 175.717 307.082 184.195C307.896 193.465 315.089 200.137 327.569 201.471C340.164 202.818 350.967 197.787 357.06 188.799C362.831 180.286 363.174 169.813 357.533 162.306C355.388 159.453 353.263 157.303 351.103 155.786C346.724 152.71 342.187 152.185 336.673 153.807ZM350.814 156.192C352.928 157.677 355.016 159.79 357.132 162.604C362.638 169.931 362.303 180.174 356.645 188.521C350.655 197.356 340.033 202.303 327.622 200.976C315.371 199.666 308.373 193.175 307.581 184.151C306.854 175.871 311.663 167.079 319.564 162.673L322.73 160.913C330.577 156.572 333.103 155.376 336.815 154.284C342.19 152.703 346.568 153.21 350.814 156.192Z" fill="white" />
		<path d="M338.17 138.953C334.33 140.041 330.177 141.711 325.19 144.113L322.311 145.524C319.709 146.82 317.505 148 308.483 152.845C294.715 160.237 286.338 174.986 287.607 188.909C288.994 204.121 301.247 215.066 322.543 217.259C344.05 219.473 362.489 211.204 372.89 196.43C382.738 182.44 383.323 165.236 373.704 152.911C370.04 148.217 366.413 144.682 362.729 142.191C355.276 137.15 347.565 136.291 338.17 138.953ZM362.447 142.603C366.084 145.062 369.675 148.56 373.308 153.216C382.786 165.359 382.209 182.325 372.48 196.145C362.184 210.77 343.921 218.959 322.594 216.764C301.526 214.595 289.47 203.826 288.106 188.864C286.855 175.144 295.126 160.583 308.721 153.283L316.834 148.934C320.402 147.032 321.698 146.375 323.956 145.268L324.522 144.991C329.884 142.368 334.274 140.574 338.308 139.431C347.567 136.808 355.125 137.65 362.447 142.603Z" fill="white" />
		<path d="M335.405 164.363L335 164.48C332.744 165.15 331.026 165.998 325.262 169.065C320.517 171.591 317.628 176.631 318.067 181.397C318.547 186.615 322.785 190.367 330.111 191.114C337.494 191.868 343.831 189.051 347.408 184.016C350.802 179.238 351.004 173.352 347.68 169.131C346.422 167.534 345.175 166.329 343.905 165.478C341.324 163.748 338.648 163.453 335.405 164.363ZM343.625 165.891C344.848 166.711 346.059 167.879 347.286 169.438C350.465 173.475 350.272 179.121 346.999 183.729C343.527 188.616 337.366 191.354 330.162 190.619C323.062 189.895 319.022 186.318 318.565 181.352C318.146 176.789 320.926 171.937 325.499 169.504L327.778 168.296C332.01 166.069 333.455 165.428 335.541 164.842C338.65 163.969 341.174 164.248 343.625 165.891Z" fill="white" />
		<path d="M302.792 64.563C283.563 68.3841 258.431 85.4845 239.805 106.191C220.863 127.248 214.156 145.853 225.323 152.42C241.098 161.696 262.801 161.696 290.423 152.442C319.023 137.758 336.526 123.719 342.964 110.285C348.031 99.7143 347.806 86.3336 341.93 76.7959C335.062 65.6473 321.642 60.8173 302.792 64.563ZM341.503 77.0559C347.287 86.4439 347.508 99.6467 342.512 110.071C336.133 123.382 318.705 137.361 290.228 151.985C262.766 161.182 241.208 161.182 225.578 151.991C214.831 145.672 221.432 127.362 240.178 106.523C258.739 85.8895 283.784 68.8477 302.89 65.0511C321.546 61.3441 334.752 66.0971 341.503 77.0559Z" fill="white" />
		<path d="M297.825 75.7131C283.691 78.6223 265.23 91.6339 251.547 107.39C237.619 123.427 232.684 137.606 240.931 142.628C252.532 149.695 268.487 149.695 288.784 142.651C309.801 131.475 322.66 120.792 327.393 110.562C331.12 102.508 330.955 92.3145 326.631 85.0455C321.574 76.5432 311.692 72.859 297.825 75.7131ZM326.2 85.2988C330.437 92.4213 330.599 102.443 326.938 110.354C322.261 120.461 309.477 131.083 288.583 142.197C268.451 149.18 252.646 149.18 241.192 142.204C233.351 137.428 238.187 123.535 251.926 107.715C265.543 92.0346 283.918 79.0839 297.927 76.2005C311.594 73.3875 321.258 76.9904 326.2 85.2988Z" fill="white" />
		<path d="M292.517 88.3108C283.327 90.1682 271.337 98.4669 262.45 108.516C253.381 118.771 250.161 127.857 255.585 131.102C263.135 135.618 273.509 135.618 286.696 131.124L287.51 130.696C300.689 123.719 308.773 117.045 311.792 110.637C314.222 105.48 314.114 98.954 311.293 94.2963C307.992 88.8463 301.545 86.4859 292.517 88.3108ZM310.864 94.5531C313.596 99.0625 313.7 105.413 311.339 110.426C308.316 116.842 300.036 123.597 286.499 130.668C273.474 135.104 263.247 135.104 255.843 130.675C250.882 127.708 253.888 119.058 262.561 109.146L262.826 108.845C271.647 98.8698 283.551 90.6309 292.617 88.7985C301.448 87.0135 307.68 89.2949 310.864 94.5531Z" fill="white" />
		<path d="M286.558 101.454C282.686 102.403 277.666 106.617 273.945 111.721L273.683 112.085C270.068 117.169 268.828 121.632 271.115 123.291C274.312 125.61 278.693 125.61 284.234 123.32C289.973 119.689 293.473 116.225 294.768 112.892C295.79 110.259 295.745 106.933 294.556 104.551C293.152 101.74 290.391 100.514 286.558 101.454ZM294.107 104.773C295.231 107.024 295.274 110.205 294.301 112.712C293.052 115.926 289.622 119.321 284.004 122.88C278.647 125.09 274.444 125.09 271.41 122.889C269.404 121.433 270.689 117.034 274.35 112.013C278.008 106.996 282.944 102.853 286.678 101.937C290.286 101.052 292.809 102.173 294.107 104.773Z" fill="white" />
		<path d="M341.039 125.42C339.002 127.942 339.115 130.17 341.007 131.874C342.529 133.243 345.163 134.183 347.837 134.454C352.754 134.952 356.2 130.465 354.731 125.506C353.2 120.338 345.292 120.156 341.039 125.42ZM354.25 125.647C355.622 130.276 352.44 134.419 347.888 133.958C345.311 133.697 342.774 132.793 341.343 131.505C339.652 129.982 339.554 128.053 341.43 125.732C345.456 120.748 352.85 120.918 354.25 125.647Z" fill="white" />
		<path d="M190.302 31.5764C184.011 43.7817 179.104 55.6822 175.581 67.278L175.317 68.1543L175.353 68.237C180.218 79.533 194.438 86.1253 217.976 88.0504C234.467 89.3991 256.309 81.2637 272.192 68.9347C288.331 56.4077 293.132 43.5759 281.74 37.2279C269.454 30.3818 248.968 24.3386 230.677 22.2704C209.837 19.9139 194.801 22.8459 190.302 31.5764ZM230.62 22.765C248.849 24.8261 269.271 30.8505 281.495 37.6621C292.44 43.7609 287.786 56.1989 271.884 68.5423C256.093 80.8002 234.368 88.8916 218.017 87.5543L217.319 87.4956C194.596 85.532 180.82 79.146 175.959 68.3722L175.849 68.1227L175.823 68.2099C179.353 56.3951 184.328 44.2596 190.747 31.8034C195.115 23.3281 209.974 20.4304 230.62 22.765Z" fill="white" />
		<path d="M192.7 26.3892C187.52 38.2845 183.476 49.8833 180.569 61.1856L180.329 62.1282L180.355 62.1997C184.374 73.2453 196.137 79.6991 215.595 81.5826C229.238 82.9031 247.294 74.9439 260.422 62.8838C273.754 50.6357 277.713 38.1129 268.302 31.906C258.147 25.2092 241.218 19.299 226.102 17.2761C208.87 14.97 196.422 17.8429 192.7 26.3892ZM226.035 17.7694C241.08 19.7828 257.937 25.6679 268.025 32.3208C277.061 38.2799 273.211 50.4568 260.082 62.5182C247.05 74.4904 229.124 82.392 215.644 81.0872L215.067 81.0298C196.318 79.1123 184.959 72.8803 180.946 62.354L180.851 62.1004L180.833 62.1756C183.749 50.626 187.857 38.7631 193.16 26.587C196.761 18.3155 209.004 15.4902 226.035 17.7694Z" fill="white" />
	</g>
	<path ref="mouth" fill-rule="evenodd" clip-rule="evenodd" d="M308.685 128.97L308.622 129.008C307.364 129.757 306.138 130.344 304.867 130.731C303.598 131.121 302.301 131.315 301.001 131.319C299.7 131.317 298.402 131.121 297.136 130.73C295.864 130.343 294.638 129.754 293.382 129.002L293.319 128.963C292.889 128.707 292.332 128.693 291.879 128.975C291.238 129.372 291.045 130.208 291.449 130.841C292.414 132.356 293.867 133.599 295.537 134.444C297.209 135.289 299.104 135.734 300.999 135.736C302.895 135.739 304.791 135.294 306.465 134.45C308.135 133.607 309.589 132.366 310.554 130.847C310.819 130.429 310.843 129.88 310.567 129.428C310.176 128.789 309.333 128.583 308.685 128.97Z" fill="#000" />
	<path ref="rightEye" d="M313.533 116.771C315.13 117.036 316.879 116.224 317.608 114.788C319.219 111.612 315.507 108.857 312.566 110.201C309.478 111.613 310.224 116.223 313.533 116.771Z" fill="#000" />
	<path ref="leftEye" d="M288.193 116.771C286.596 117.036 284.847 116.224 284.118 114.788C282.506 111.612 286.219 108.857 289.16 110.201C292.248 111.613 291.502 116.223 288.193 116.771Z" fill="#000" />
</svg>